<svg t="1591003876607" class="icon" viewBox="0 0 1024 1024" version="1.1" xmlns="http://www.w3.org/2000/svg" p-id="2410" width="200" height="200"><path d="M465.262 341.75c16.695 0 27.811-11.115 27.811-27.81s-11.116-27.812-27.811-27.812A167.395 167.395 0 0 0 298.35 453.04c0 16.695 11.116 27.811 27.811 27.811s27.812-11.16 27.812-27.811a111.597 111.597 0 0 1 111.289-111.29z m0-111.289c16.695 0 27.811-11.115 27.811-27.81s-11.116-27.812-27.811-27.812c-152.984 0-278.201 125.217-278.201 278.2 0 16.696 11.16 27.812 27.855 27.812s27.811-11.16 27.811-27.811c0-122.405 100.174-222.579 222.535-222.579zM367.90000001 606.024c-30.579-30.623-77.898-33.391-111.28900002-5.58L148.134 686.69c-36.16 27.811-41.74 80.666-13.928 116.869 2.812 2.768 2.812 5.536 5.58 5.536l75.13 75.13c72.318 72.318 267.041-30.62300001 453.417-217.042C854.708 480.85 954.88 288.94 885.33 216.622l-75.13-75.12999999c-33.391-33.392-86.246-33.392-116.825-1e-8l-5.58 5.536-86.246 108.52c-27.81 33.34799999-25.043 80.623 5.58 111.246l47.319 47.275c-30.623 50.087-64.014 94.593-102.941 133.564-38.971 38.927-83.478 72.275-133.565 102.898l-50.043-44.507z m-75.13000001 38.92700001c11.16-8.348 27.855-8.348 36.203 2.81199998l63.97 61.20200001a29.569 29.569 0 0 0 33.392 5.536 721.425 721.425 0 0 0 164.1-122.405 721.512 721.512 0 0 0 122.405-164.1 29.569 29.569 0 0 0-5.58-33.39000001l-63.97-63.97099999c-11.116-11.16-11.116-25.043-2.769-36.20299999l89.014-108.47700001s0-2.768 2.768-2.768a26.889 26.889 0 0 1 38.971 0l75.13 75.13c36.115 36.115-55.666 208.606-217.042 372.75-161.332 164.1-336.548 253.114-372.75 216.955l-77.89900001-77.854c-8.348-11.16-8.348-30.623 5.58000001-38.971l108.52099999-86.246z" p-id="2411" fill="#bfbfbf"></path></svg>