<svg t="1591062114515" class="icon" viewBox="0 0 1024 1024" version="1.1" xmlns="http://www.w3.org/2000/svg" p-id="4059" width="200" height="200"><path d="M870.799 895.607c-22.817 0-41.314-18.497-41.314-41.314v-583.05c0-71.006-43.768-107.808-119.773-107.808H234.226c-22.817 0-41.314-18.497-41.314-41.314 0-22.818 18.497-41.315 41.314-41.315h475.485c116.748 0 202.401 58.78 202.401 190.438v583.049c0 22.817-18.496 41.314-41.313 41.314z m-180.535-672.91H201.957c-49.397 0-89.442 40.043-89.442 89.44v541.228c0 49.397 40.045 89.441 89.442 89.441h495.071c45.652 0 82.666-37.028 82.666-82.68v-548c0-49.391-40.04-89.43-89.43-89.43zM332.71 444.448h76.584v-76.584c0-20.329 16.48-36.81 36.81-36.81 20.328 0 36.81 16.48 36.81 36.81v76.583h76.583c20.329 0 36.81 16.48 36.81 36.81 0 20.328-16.481 36.81-36.81 36.81h-76.584v76.583c0 20.329-16.48 36.81-36.81 36.81-20.329 0-36.81-16.481-36.81-36.81v-76.584h-76.583c-20.33 0-36.81-16.481-36.81-36.81 0-20.327 16.48-36.808 36.81-36.808z m288.431 344.268H271.066c-19.625 0-35.534-15.909-35.534-35.534s15.91-35.534 35.534-35.534h350.077c19.624 0 35.534 15.91 35.534 35.534 0 19.625-15.91 35.534-35.535 35.534z" p-id="4060" fill="#ffffff"></path></svg>