<svg t="1591003998773" class="icon" viewBox="0 0 1024 1024" version="1.1" xmlns="http://www.w3.org/2000/svg" p-id="5973" width="200" height="200"><path d="M861.835636 74.472727H725.271273A55.854545 55.854545 0 0 1 726.109091 83.781818a55.854545 55.854545 0 0 1-55.854546 55.854546H363.054545a55.854545 55.854545 0 0 1-55.854545-55.854546 55.854545 55.854545 0 0 1 0.837818-9.309091H162.164364A59.950545 59.950545 0 0 0 102.4 134.237091v830.091636A59.950545 59.950545 0 0 0 162.164364 1024h699.671272a59.950545 59.950545 0 0 0 59.764364-59.764364V134.237091A59.950545 59.950545 0 0 0 861.835636 74.472727zM819.2 921.6H204.8V242.036364h614.4z" fill="#e6e6e6" p-id="5974"></path><path d="M349.090909 0m51.2 0l223.418182 0q51.2 0 51.2 51.2l0 0q0 51.2-51.2 51.2l-223.418182 0q-51.2 0-51.2-51.2l0 0q0-51.2 51.2-51.2Z" fill="#e6e6e6" p-id="5975"></path><path d="M297.890909 297.890909m41.890909 0l344.436364 0q41.890909 0 41.890909 41.890909l0 0q0 41.890909-41.890909 41.890909l-344.436364 0q-41.890909 0-41.890909-41.890909l0 0q0-41.890909 41.890909-41.890909Z" fill="#e6e6e6" p-id="5976"></path><path d="M637.672727 614.4H558.545455v-79.127273a46.545455 46.545455 0 0 0-93.09091 0V614.4h-79.127272a46.545455 46.545455 0 0 0 0 93.090909H465.454545v79.127273a46.545455 46.545455 0 0 0 93.09091 0V707.490909h79.127272a46.545455 46.545455 0 0 0 0-93.090909z" fill="#e6e6e6" p-id="5977"></path></svg>